<svg width="51" height="50" viewBox="0 0 51 50" fill="none" xmlns="http://www.w3.org/2000/svg">
<g id="bud">
<path id="Vector" style="mix-blend-mode:screen" d="M25.2145 50C39.0216 50 50.2145 38.8071 50.2145 25C50.2145 11.1929 39.0216 0 25.2145 0C11.4074 0 0.214478 11.1929 0.214478 25C0.214478 38.8071 11.4074 50 25.2145 50Z" fill="url(#paint0_radial_2045_48)"/>
<path id="Vector_2" d="M25.2127 41.6634C33.1021 41.6634 39.4977 34.773 39.4977 26.2733C39.4977 17.7735 33.1021 10.8832 25.2127 10.8832C17.3233 10.8832 10.9277 17.7735 10.9277 26.2733C10.9277 34.773 17.3233 41.6634 25.2127 41.6634Z" fill="#333333"/>
<path id="Vector_3" d="M25.2127 39.4531C33.1021 39.4531 39.4977 33.0576 39.4977 25.1682C39.4977 17.2788 33.1021 10.8832 25.2127 10.8832C17.3233 10.8832 10.9277 17.2788 10.9277 25.1682C10.9277 33.0576 17.3233 39.4531 25.2127 39.4531Z" fill="white"/>
<path id="Vector_4" d="M25.2135 36.7336C30.8021 36.7336 35.3326 31.8793 35.3326 25.8912C35.3326 19.9032 30.8021 15.049 25.2135 15.049C19.6248 15.049 15.0943 19.9032 15.0943 25.8912C15.0943 31.8793 19.6248 36.7336 25.2135 36.7336Z" fill="#333333"/>
<path id="Vector_5" d="M25.2135 35.2873C30.8021 35.2873 35.3326 30.7568 35.3326 25.1681C35.3326 19.5795 30.8021 15.049 25.2135 15.049C19.6248 15.049 15.0943 19.5795 15.0943 25.1681C15.0943 30.7568 19.6248 35.2873 25.2135 35.2873Z" fill="#F0EA8F"/>
<path id="Vector_6" d="M25.215 29.5018C28.4074 29.5018 30.9953 26.914 30.9953 23.7217C30.9953 20.5293 28.4074 17.9414 25.215 17.9414C22.0227 17.9414 19.4348 20.5293 19.4348 23.7217C19.4348 26.914 22.0227 29.5018 25.215 29.5018Z" fill="white"/>
</g>
<defs>
<radialGradient id="paint0_radial_2045_48" cx="0" cy="0" r="1" gradientUnits="userSpaceOnUse" gradientTransform="translate(25.2196 25) scale(25 25)">
<stop stop-color="#FCEE21"/>
<stop offset="1"/>
</radialGradient>
</defs>
</svg>
